<?xml version="1.0" standalone="no"?>
<!DOCTYPE svg PUBLIC "-//W3C//DTD SVG 1.1//EN" "http://www.w3.org/Graphics/SVG/1.1/DTD/svg11.dtd" >
<svg>
<metadata>
Created by FontForge 20110222 at Mon Mar  7 11:12:28 2011
 By www-data
Psychedelic Type 2009
</metadata>
<defs>
<font id="1960sHippie" horiz-adv-x="435" >
  <font-face 
    font-family="1960s Hippie"
    font-weight="5"
    font-stretch="normal"
    units-per-em="1000"
    panose-1="0 0 0 0 0 0 0 0 0 0"
    ascent="800"
    descent="-200"
    x-height="621"
    cap-height="812"
    bbox="3 -202 681 936.439"
    underline-thickness="20"
    underline-position="-123"
    unicode-range="U+0020-2019"
  />
    <missing-glyph />
    <glyph glyph-name="space" unicode=" " horiz-adv-x="250" 
 />
    <glyph glyph-name="exclam" unicode="!" horiz-adv-x="457" 
d="M417 733q0 -20 -12.5 -43t-52 -58.5t-47.5 -69.5l6 -41l7 -39l-3 -23q-12 -16 -34 -25q-25 -7 -48 -7t-47 4l-46 12q-24 11 -24 46q0 15 2 22l6 22q14 20 14 41q0 32 -50 80.5t-50 72.5q0 13 10.5 27t34.5 28q22 10 64 20q19 3 38.5 5t39.5 2q73 0 127.5 -19.5
t64.5 -56.5zM331 356q0 -50 53.5 -137t53.5 -126q0 -27 -12.5 -49t-44.5 -47q-30 -16 -62.5 -24.5t-55 -11.5t-43.5 -3q-42 0 -80.5 11.5t-66 37t-40 64t-12.5 85.5t10 88q9 45 27.5 88.5t56 55t108.5 18.5q30 0 42 -1t33 -7.5t33 -41.5z" />
    <glyph glyph-name="quotedbl" unicode="&#x22;" horiz-adv-x="498" 
d="M203 865q6 -16 11 -44l3 -50q0 -60 -20.5 -122.5t-55.5 -117.5q-31 -34 -46 -43.5t-27 -14.5t-25 -5l-12 1q-6 10 -7 23q0 16 20 46.5t24 46.5l2 19q0 25 -33.5 78t-33.5 78q0 14 6 32q8 47 35 82t69 50q30 3 54.5 -14.5t35.5 -44.5zM446 877q6 -16 11 -44l3 -50
q0 -60 -20.5 -122.5t-55.5 -117.5q-31 -34 -46 -43.5t-27 -14.5t-25 -5l-12 1q-6 10 -7 23q0 16 20 46.5t24 46.5l2 19q0 25 -33.5 78t-33.5 78q0 14 6 32q8 47 35 82t69 50q30 3 54.5 -14.5t35.5 -44.5z" />
    <glyph glyph-name="dollar" unicode="$" horiz-adv-x="388" 
d="M229 709q34 -7 61.5 -24t37.5 -47l3 -20l1 -15q0 -19 -5 -30q-3 -12 -16.5 -22.5t-31.5 -10.5q-12 0 -17.5 1.5t-15.5 7.5t-15.5 39.5t-28.5 36.5q-14 -5 -23.5 -11.5t-15.5 -21.5q16 -36 94.5 -84.5t96 -101t17.5 -110.5q0 -90 -37 -158q-9 -36 -68 -57q-58 -18 -58 -58
l1 -17l-7 -2l-15 -1h-18q-4 8 -8 24l-2 29q-87 24 -123 112q-18 65 -18 139q0 76 22 138q11 15 23 15t33 -21.5t31 -21.5q5 0 13.5 6t15.5 22q-4 27 -47.5 63.5t-49.5 57.5l-5 35v10.5t4 20t22 31.5q8 10 48 29q38 15 41 41l7 26l18 4q17 0 26 -17t9 -37z" />
    <glyph glyph-name="ampersand" unicode="&#x26;" horiz-adv-x="664" 
d="M395 739q3 -9 5 -18t2 -20q0 -36 -31 -80l-59 -80q0 -39 29 -83t39.5 -61t14.5 -25l11 -3q12 0 27.5 25t27.5 25q9 0 20 -7q17 -22 23.5 -48.5t8.5 -43t2 -39.5v-17q0 -7 -1 -16.5t-1 -14.5l-4 -47q39 -77 61 -102t56 -35q6 -5 8 -18l-1 -19q-35 -40 -90 -40
q-30 0 -62 23l-59 43q-24 -30 -64.5 -43.5t-84.5 -13.5l-49 3q-18 0 -51 7t-62 29q-27 23 -48 54q-16 33 -22.5 60.5t-8.5 43t-2 36.5q0 89 46.5 178t120.5 169q-2 8 -8 24t-21 45q-24 54 -24 83q0 17 5 31.5t20 31.5t39 24.5t50 7.5q19 0 30 -2q14 0 37 -6
q20 -3 39.5 -19.5t30.5 -41.5zM263 742q-25 -5 -25 -28l3 -12l13 -43q4 -10 16 -23q20 25 25.5 36.5t6.5 21t1 21.5q-3 12 -16 21q-10 9 -24 6zM237 454l-13 -20q-5 -14 -7 -31q0 -28 29 -51q10 -6 23 -7q12 0 18 7q-3 12 -7 26.5t-13 36t-30 39.5z" />
    <glyph glyph-name="quotesingle" unicode="'" horiz-adv-x="256" 
d="M203 865q6 -16 11 -44l3 -50q0 -60 -20.5 -122.5t-55.5 -117.5q-31 -34 -46 -43.5t-27 -14.5t-25 -5l-12 1q-6 10 -7 23q0 16 20 46.5t24 46.5l2 19q0 25 -33.5 78t-33.5 78q0 14 6 32q8 47 35 82t69 50q30 3 54.5 -14.5t35.5 -44.5z" />
    <glyph glyph-name="parenleft" unicode="(" horiz-adv-x="421" 
d="M375 846q27 -33 27 -75q0 -25 -13.5 -49t-88 -88t-80.5 -122l-11 -73l-3 -68q0 -61 12.5 -111.5t44.5 -92.5q39 -35 62 -57t42.5 -42t30.5 -66v-12q0 -24 -10 -45.5t-26 -40.5q-21 -12 -39 -18t-39 -6q-20 0 -40 7q-97 64 -150.5 172.5t-61.5 180.5t-10.5 98.5t-2.5 59.5
q0 122 36 231t114 196q28 24 63.5 39.5t66.5 15.5q22 0 40.5 -7.5t35.5 -26.5z" />
    <glyph glyph-name="parenright" unicode=")" horiz-adv-x="422" 
d="M359 673q9 -27 17.5 -63.5t17.5 -93t9 -125.5q0 -75 -12 -143.5t-49 -164t-142 -182.5q-39 -21 -75 -21q-35 0 -64 21q-16 16 -26.5 35t-15.5 45q0 57 74.5 121.5t86.5 87.5q17 49 27.5 105.5t10.5 106.5q0 66 -15.5 119t-53.5 97l-78 67q-30 28 -37 52l-6 33
q0 20 7.5 35.5t25.5 40.5q36 34 88 34q74 0 119 -54.5t91 -152.5z" />
    <glyph glyph-name="comma" unicode="," horiz-adv-x="282" 
d="M203 215q38 -61 38 -140q0 -50 -14.5 -99.5t-45 -90.5t-50.5 -58t-34 -23t-32 -6l-18 2q-9 12 -9 23q0 13 18.5 37.5t23.5 39.5l3 26q0 32 -24 99t-24 100q0 20 6 41t22 40q21 35 69 35q42 0 71 -26z" />
    <glyph glyph-name="hyphen" unicode="-" horiz-adv-x="425" 
d="M392 429q14 -17 14 -39q0 -20 -18 -64l-18 -47q-14 -11 -48.5 -16.5t-60.5 -7.5t-54 -2q-62 0 -117 9t-71 26q14 66 24 95.5t42 49.5l172 -2z" />
    <glyph glyph-name="period" unicode="." horiz-adv-x="283" 
d="M227 193q19 -32 27.5 -57.5t11.5 -42.5t3 -37q0 -35 -14 -65t-42 -38.5t-83 -14.5q-37 0 -65 11.5t-44 41.5l-6 28l-2 30q0 56 24.5 105t70.5 89q17 10 33 10q19 0 41 -13t45 -47z" />
    <glyph glyph-name="zero" unicode="0" horiz-adv-x="500" 
d="M336 762q64 -80 102.5 -192.5t38.5 -225.5q0 -36 -4 -71.5t-16.5 -87.5t-46.5 -109q-32 -39 -81 -58t-108 -19q-66 0 -108 56t-60 110.5t-24 101t-6 81.5q0 93 25 188.5t54.5 158t66 82t75.5 19.5q19 0 27 -1t27.5 -8t37.5 -25zM206 667q-12 -36 -12 -75q0 -33 9 -62.5
t42 -29.5q16 0 30 7t20 20q6 21 6 46v12q0 6 -2 20l-8 50q-5 34 -14.5 47t-25.5 15q-27 0 -45 -50z" />
    <glyph glyph-name="one" unicode="1" horiz-adv-x="417" 
d="M358 742q-1 -15 -29 -117.5t-28 -146.5q3 -32 7 -58t11 -53t15.5 -54t37.5 -110t29 -96q0 -48 -43 -84q-69 -36 -167 -36q-24 0 -41.5 2t-44 9.5t-45.5 30.5q-19 29 -32 64q-9 33 -9 65q0 61 38 137l73 138q38 73 38 130q0 35 -11 67.5t-31 57.5l-24 33l-4 18l3 11
q23 26 59.5 39.5t110.5 13.5l51 -21q29 -15 36 -40z" />
    <glyph glyph-name="two" unicode="2" horiz-adv-x="459" 
d="M398 719q6 -14 6 -29q0 -32 -18 -56q-19 -20 -75.5 -59.5t-71 -52.5t-14.5 -31q0 -24 32 -24q12 0 21 3.5t17 7t24 12.5t32 11q16 0 30 -13q32 -36 44 -91.5t12 -125.5l-1 -44l-1 -56q0 -45 -24.5 -88t-65.5 -66l-63 -17q-18 -3 -34.5 -5t-34.5 -2q-24 0 -35.5 1t-38 7.5
t-48.5 24.5q-41 38 -55.5 96.5t-14.5 133.5v43l1 44l-1 21q0 92 87 170l129 115q42 38 42 45q0 17 -15 23l-26 5q-18 0 -31.5 -8t-14.5 -24q0 -25 -10 -38t-32 -19q-22 0 -40 9.5t-22 26.5l-3 26q0 17 6.5 31.5t24.5 32t42.5 24.5t42.5 10t35 3q32 0 59 -7l59 -24
q29 -16 44 -46z" />
    <glyph glyph-name="three" unicode="3" horiz-adv-x="474" 
d="M382 707q6 -14 6 -27q0 -15 -6 -33l-11 -33q-25 -12 -35.5 -26t-12.5 -31q0 -26 42 -71t64.5 -94t22.5 -143q0 -49 -12.5 -92.5t-38.5 -76.5q-35 -53 -94 -68q-62 -13 -150 -13q-33 0 -60 13t-43 40q-14 30 -25 70q-4 21 -6 38t-2 39q0 59 18 140l35 154q3 7 9 12.5
t15 5.5q22 0 55.5 -31t44.5 -31q12 0 22.5 5.5t15 14.5t6.5 26q0 16 -5.5 25.5t-15.5 14.5l-20 4h-17l-21 3q-6 3 -10 17q0 14 6 31q7 14 21 20q37 0 54 5t20 19l4 19q0 32 -20.5 41t-34.5 11q-39 0 -52 -38q0 -9 -8.5 -18.5t-22.5 -14.5q-21 0 -38.5 9t-23.5 28l-4 21
q0 20 15.5 40.5t33 31t27.5 15t34 11.5t55 7q34 0 61 -7q37 -14 63.5 -34t38.5 -49z" />
    <glyph glyph-name="four" unicode="4" horiz-adv-x="521" 
d="M481 728l4 -15q0 -14 -16.5 -30.5t-23.5 -25t-10 -12.5l-16 -45q-7 -26 -7 -43l3 -27q34 -6 51 -13q19 -4 28 -30l3 -30q0 -28 -12 -52l-18 -4l-16 1q-10 0 -16 2q-18 0 -22 -13l-3 -24q0 -45 37.5 -131.5t37.5 -123.5q0 -29 -12.5 -54t-44.5 -50q-52 -22 -108 -22
q-49 0 -84 10t-54.5 17.5t-39 18.5t-26 29.5t-6.5 42.5v18l4 26q12 42 62 110.5t66 105.5l4 26q0 13 -4 19.5t-13.5 9.5t-27.5 3l-89 6q-62 11 -88 56q0 58 19 95.5t52.5 92.5t77.5 85t77 36l41 5l13 1q109 0 177 -71zM217 649q-30 -14 -40 -29t-10 -34q6 -21 23.5 -28.5
t26.5 -10t36 -6.5l8 45l5 43q0 25 -25 25q-14 0 -24 -5z" />
    <glyph glyph-name="five" unicode="5" horiz-adv-x="492" 
d="M445 765q12 -3 18 -12.5t6 -24.5l-3 -29l-4 -26l-14 -39q-9 -33 -40 -36q-21 0 -37.5 6t-28.5 24q0 22 -6.5 37t-26.5 21l-26 1q-18 0 -28 2q-23 0 -35.5 -5t-22.5 -20l-4 -20l-2 -19q0 -16 5.5 -25.5t21.5 -15.5q66 0 121.5 -27.5t85.5 -84.5q15 -46 24 -97t9 -103
q0 -62 -12.5 -113t-42.5 -93q-29 -35 -74 -52.5t-94 -17.5h-17q-10 0 -22 2q-11 0 -17 1t-27 7q-35 14 -58 35t-32 51l-7 45l-2 48q0 43 10 130l10 124q3 11 11 14.5t23 5.5h11q20 -27 37 -43t42 -16t42.5 7t25.5 24l7 27q0 19 -12.5 34.5t-26.5 22.5l-26 8l-21 2
q-42 0 -75 -30q-17 -2 -24 14l-13 32l-25 100q-7 30 -12.5 49t-13.5 42q-3 20 7.5 29.5t34.5 20.5l69 10l77 4q49 0 67 -1.5t52 -6.5q61 -6 115 -23z" />
    <glyph glyph-name="six" unicode="6" horiz-adv-x="473" 
d="M382 763q45 -42 45 -101q0 -24 -15.5 -54t-56.5 -30q-16 0 -28.5 8.5t-12.5 24.5l2 29l3 20q0 15 -4.5 22t-16.5 15q-21 3 -33 -8.5t-26 -33.5t-20.5 -45.5t-6.5 -44.5q0 -36 20 -33l27 2q55 0 100.5 -25.5t60.5 -68.5t24 -85.5t9 -86.5q0 -59 -15.5 -108.5t-43 -90.5
t-69.5 -56.5t-88 -15.5q-60 0 -99 23q-63 44 -90 121.5t-27 174.5q0 72 9.5 124.5t19.5 84.5t33 87t71 113.5t127 70.5q35 0 58 -6.5t43 -26.5zM248 446q-14 0 -22 -12q-6 -12 -9 -31q3 -18 17 -29t33 -11l20 -1q19 0 27.5 3.5t8.5 17.5q-1 3 -1.5 6.5t-5.5 12.5
q-5 14 -27 29q-18 15 -41 15z" />
    <glyph glyph-name="seven" unicode="7" horiz-adv-x="431" 
d="M368 786q20 -9 33 -24q14 -12 14 -28q0 -9 -21.5 -34.5t-36.5 -71t-15 -98.5q0 -60 34.5 -197.5t34.5 -188.5v-24q-3 -18 -5 -36t-24 -44t-49 -33l-53 -8l-50 -3q-64 0 -111.5 19t-77.5 68q-23 46 -23 88q0 64 52 140l99 144q15 28 27 53t23.5 53t11.5 74l-3 21
q-1 9 -11 15t-23 6t-24 -6q-8 -6 -20.5 -18t-31.5 -31.5t-39 -19.5l-13 3q-8 3 -14 14q-5 13 -5 29q0 20 14 59.5t25.5 60.5t48.5 30l62 1l58 1h30.5t27.5 -2q11 0 28 -4.5t27 -7.5z" />
    <glyph glyph-name="eight" unicode="8" horiz-adv-x="487" 
d="M387 753q8 -5 16.5 -27t8.5 -44q0 -38 -21 -61l-38 -37q-17 -17 -17 -34q0 -14 32 -55q15 -17 32 -46.5t33 -65t24 -70.5t8 -73q0 -11 -0.5 -23.5t-3.5 -34.5t-17 -51q-17 -50 -59 -87.5t-80 -42.5l-49 -3l-20 -1q-65 0 -111.5 21t-67.5 60q-19 39 -24.5 62t-7.5 36
t-2 25q0 68 40 149l67 133q27 53 27 62q0 12 -17 36l-26 41q-2 3 -7 13.5t-11.5 28t-6.5 35.5q0 25 15 48.5t51.5 37.5t79.5 14q44 0 82.5 -11t69.5 -35zM242 704q-9 -3 -16 -14.5t-7 -25.5l2 -15q15 -50 38 -50q15 0 25 19.5t10 48.5q-2 16 -13.5 27.5t-26.5 11.5zM222 462
l-7 -21l-3 -17q0 -12 10 -21q14 -9 34 -9q15 0 24.5 5.5t14.5 19.5v12q0 7 -1 13.5t-11 29t-28 22.5q-17 0 -33 -34z" />
    <glyph glyph-name="nine" unicode="9" horiz-adv-x="464" 
d="M382 681q30 -62 45 -135t15 -152q0 -93 -20 -176t-64 -152q-23 -31 -60 -50q-37 -17 -77 -17l-27 1q-10 0 -48 12.5t-71.5 65.5t-42.5 105l-9 81l-2 62q0 22 1 43.5t5 52t11.5 53t15.5 27t23 6.5q13 0 24 -7q14 -20 36.5 -31.5t46.5 -11.5q20 0 36 8.5t24.5 21.5t8.5 23
t-7 18l-79 18q-73 15 -88 29.5t-25 32.5q-6 17 -6 37l1 18l6 29q5 20 22.5 44.5t50 41.5t73.5 17q55 0 103.5 -31.5t77.5 -83.5zM196 703q-21 -3 -33 -14q-12 -9 -12 -28q9 -23 40 -35l55 -11q8 6 8 24l-1 25q0 20 -16.5 29.5t-40.5 9.5z" />
    <glyph glyph-name="colon" unicode=":" horiz-adv-x="283" 
d="M232 622l27 -73q11 -38 11 -69q0 -27 -6.5 -45t-23.5 -38q-49 -35 -118 -35q-41 0 -68 18q-41 38 -41 95l1 19q25 77 46 117.5t70 64.5l21 3q24 0 46.5 -15.5t34.5 -41.5zM227 193q19 -32 27.5 -57.5t11.5 -42.5t3 -37q0 -35 -14 -65t-42 -38.5t-83 -14.5q-37 0 -65 11.5
t-44 41.5l-6 28l-2 30q0 56 24.5 105t70.5 89q17 10 33 10q19 0 41 -13t45 -47z" />
    <glyph glyph-name="semicolon" unicode=";" horiz-adv-x="282" 
d="M232 622q37 -65 37 -137q0 -32 -9 -64q-10 -17 -29.5 -33.5t-44.5 -22.5t-53 -6q-46 0 -75 19q-45 36 -45 95l1 17q23 73 47 118t72 64h12q30 0 51.5 -12t35.5 -38zM203 215q38 -61 38 -140q0 -50 -14.5 -99.5t-45 -90.5t-50.5 -58t-34 -23t-32 -6l-18 2q-9 12 -9 23
q0 13 18.5 37.5t23.5 39.5l3 26q0 32 -24 99t-24 100q0 20 6 41t22 40q21 35 69 35q42 0 71 -26z" />
    <glyph glyph-name="question" unicode="?" horiz-adv-x="502" 
d="M478 723l1 -15q0 -51 -65 -100.5t-75 -62.5t-11 -28l1 -20l2 -20q0 -15 -6.5 -24.5t-28.5 -13.5q-40 -10 -72 -10q-37 0 -65.5 10t-49.5 37q0 29 15.5 53t69.5 57.5t62 52.5t8 25q0 12 -10.5 22.5t-28.5 16.5q-15 3 -27 -8.5t-17 -27.5l1 -15q0 -20 -7 -29t-20 -12
q-32 0 -48.5 5.5t-25.5 21.5q-14 30 -16 47l3 24q3 12 12 24q33 31 83.5 45.5t107.5 14.5h20.5t24.5 -2q21 0 59 -6q18 0 32.5 -4.5t36 -17t34.5 -40.5zM349 356q0 -50 53.5 -137t53.5 -126q0 -27 -12.5 -49t-44.5 -47q-72 -39 -170 -39q-46 0 -86 11t-68.5 37t-41 64.5
t-12.5 85.5t10 88q9 45 27.5 88.5t56 55t108.5 18.5q53 0 82 -8q32 -7 44 -42z" />
    <glyph glyph-name="A" unicode="A" horiz-adv-x="691" 
d="M560 777q21 -20 21 -45q0 -17 -17 -53.5t-20 -54.5q-9 -38 -9 -70q0 -63 31 -135l61 -139q16 -41 24 -79t8 -76q0 -40 -12 -65t-40 -38q-28 -11 -52.5 -16t-39.5 -7t-30 -2q-30 0 -52 6t-40.5 26.5t-28 52.5t-9.5 68q0 48 15 126t20 110.5t5 52.5q0 28 -11 49.5t-35 24.5
q-23 0 -38.5 -9.5t-18.5 -26.5l-3 -26v-15q0 -51 20.5 -140.5t20.5 -132.5q0 -36 -6.5 -63t-20.5 -55.5t-49 -40t-75 -11.5q-8 0 -18 0.5t-28.5 3.5t-35 11.5t-33.5 25.5q-12 15 -25 42q-3 17 -5 32t-2 33q0 64 32 134l66 143q34 74 34 134q0 36 -5 54q-4 21 -23.5 64
t-19.5 59q0 11 6 28q21 24 55.5 33t80.5 9h38l59 1h22h18q12 2 18 2q23 0 42.5 -1t36.5 -3.5t33 -7t35 -13.5zM344 703q-20 -6 -28.5 -24t-8.5 -42l15 -4l19 2l16 3q11 0 20 -6q9 3 9 17v25q-10 29 -42 29z" />
    <glyph glyph-name="B" unicode="B" horiz-adv-x="573" 
d="M459 709l4 -28q0 -29 -7.5 -43t-16 -27.5t-22.5 -33.5q58 -82 76.5 -119t25.5 -55t17.5 -57.5t10.5 -81.5q0 -64 -23 -118t-63.5 -88t-101 -49.5t-123.5 -15.5q-48 0 -84 7q-41 6 -63 19t-39.5 32t-23.5 47q0 65 29 139l58 153q29 78 29 147q-4 28 -10 53t-15.5 56
t-37.5 70l-1 8v6q0 41 34 54q59 16 132 16q82 0 141.5 -21.5t73.5 -69.5zM281 705q-11 -6 -11 -19q0 -9 9 -27t11 -29q14 5 22.5 20t8.5 33q-3 11 -15 18t-25 4zM290 520l-9 -101q0 -8 5 -13l15 -4l18 4q11 3 20 21t9 43q0 17 -2 24q0 10 -12.5 20t-25.5 10q-10 0 -18 -4z
" />
    <glyph glyph-name="C" unicode="C" horiz-adv-x="482" 
d="M395 758q14 -17 21 -43t7 -60q-4 -18 -16.5 -29.5t-26.5 -17.5l-19 -5q-23 0 -36.5 8.5t-17.5 27.5v12q0 10 -1 20t-4.5 21t-21.5 20q-21 0 -35.5 -15t-19.5 -38l-9 -42l-4 -42v-16.5t3.5 -20t6 -20t8.5 -17.5q16 -21 35.5 -33t40.5 -12q14 0 27 5q7 4 26 27q15 23 31 23
q10 0 18 -4q24 -48 38.5 -107.5t14.5 -119.5q0 -67 -18.5 -127.5t-48.5 -95.5t-50 -44t-39 -14t-42 -5l-17 1h-9q-59 0 -105 35.5t-78 118.5t-32 201q0 109 29.5 206.5t86.5 175.5q25 31 65.5 50t81.5 19q66 0 110 -43z" />
    <glyph glyph-name="D" unicode="D" horiz-adv-x="527" 
d="M407 702q97 -165 97 -342q0 -140 -64 -256q-33 -48 -92 -76t-125 -28l-47 3q-48 0 -87.5 19.5t-53.5 50t-14 47.5q0 8 23 76l42 139q9 35 14 70.5t5 75.5q0 59 -15.5 109.5t-39.5 81.5t-24 51q0 19 11 35t55.5 29.5t109.5 13.5q70 0 121 -22.5t84 -76.5zM239 669
q0 -23 1 -61t1 -53q0 -21 4 -45t10 -49q8 -2 12 -2q7 0 14 5.5t15.5 17.5t11.5 21l5 15l4 39q0 24 -2.5 35.5t-3.5 19.5t-8.5 23t-19 28t-25.5 13q-9 0 -19 -7z" />
    <glyph glyph-name="E" unicode="E" horiz-adv-x="487" 
d="M375 776q17 -18 27.5 -42t10.5 -44q0 -21 -10 -38q-10 -10 -26 -10q-14 0 -31 12l-29 31q-22 19 -38 19q-7 0 -18 -5t-12 -21q0 -12 5.5 -18.5t45.5 -14.5q38 -6 38 -30l1 -23q0 -15 -2 -23t-17 -11l-15 1q-15 0 -28 -5.5t-19 -15.5t-6 -21q0 -33 17 -36l26 -3
q21 0 50 35t40 35q10 0 28.5 -10t28.5 -51l19 -127v-47l1 -48q0 -115 -10.5 -159t-33 -66.5t-65.5 -34.5q-47 -10 -95 -10q-51 0 -101.5 9t-76.5 26q-27 15 -42.5 36.5t-15.5 52.5q0 59 24 130l50 141q25 73 25 127v31q-3 13 -5 27.5t-15 44.5l-29 56q-14 31 -14 56l3 24
q23 26 59 38q40 10 84 10h30.5t32.5 -2l71 -4q12 0 20 -6q5 -2 17 -16z" />
    <glyph glyph-name="F" unicode="F" horiz-adv-x="469" 
d="M416 751q6 -6 13.5 -23.5t12.5 -33t5 -33.5q0 -16 -4 -28q-9 -14 -31 -14l-18 3q-10 7 -36.5 38t-45.5 31q-7 0 -15.5 -3.5t-11.5 -9.5l-3 -10q4 -22 44 -31q40 -6 40 -37q0 -23 -3 -33.5t-19 -19.5q-17 0 -24.5 -1t-18.5 -7q-15 -6 -19 -29q0 -58 31 -124l64 -131
q32 -66 32 -121q0 -35 -10 -66q-27 -38 -69.5 -53.5t-98.5 -15.5l-55 3l-46 4q-35 10 -60 25t-39 43q-9 36 -9 70q0 62 29 133l60 145q31 76 31 134l-43 159q0 21 9 38t24 25.5t47 13.5l70 4q56 0 100.5 -9.5t66.5 -35.5z" />
    <glyph glyph-name="G" unicode="G" horiz-adv-x="496" 
d="M384 760q15 -12 20.5 -28.5t7.5 -26.5t2 -23q0 -17 -2 -23l-4 -18q-1 -8 -21.5 -19t-42.5 -11q-21 0 -35.5 9t-14.5 31v15q0 13 -3 20t-13 10l-11 3q-15 0 -26 -13t-21 -35.5t-16 -46.5q-4 -24 -4.5 -32.5t-0.5 -14.5q0 -30 9 -50t26 -32.5t36 -12.5q9 0 19.5 7t15.5 17
q3 11 -3 20.5t-17 16.5h-15q-15 0 -18 9v13q0 15 4.5 26.5t15.5 17.5l38 1l40 1q35 0 54.5 -3t27.5 -5.5t22 -9.5l3 -52q0 -34 -4 -81l-3 -66l16 -186q9 -98 9 -133q0 -13 -3.5 -24t-30.5 -16q-24 0 -40 13l-24 25q-33 -27 -70 -42.5t-84 -15.5q-55 0 -97 30t-65 85
q-8 26 -15 52.5t-15 75t-8 117.5q0 179 64 322q57 109 174 127q14 0 29.5 -1.5t37.5 -9.5q32 -9 56 -33z" />
    <glyph glyph-name="H" unicode="H" horiz-adv-x="684" 
d="M285 779q9 -12 9 -31q0 -12 -7 -39l-6 -36q0 -16 7 -23.5t30 -13.5l21 -1l23 -1q21 0 34.5 6.5t13.5 22.5q0 4 -1 14t-4 23l-5 42q0 20 6.5 32t26.5 21l36 5l38 2q12 0 26.5 -0.5t37.5 -7.5t36.5 -26.5t13.5 -38.5t-27.5 -84t-27.5 -121q0 -71 43.5 -220t43.5 -177v-28
q-3 -11 -4.5 -17.5t-6 -16t-16.5 -26.5t-40.5 -28.5t-66.5 -11.5l-34 1l-40 4q-19 0 -38.5 17.5t-35.5 47.5q-15 45 -15 99q0 44 14 120t19 110.5t5 54.5q0 41 -9.5 74t-37.5 33q-40 0 -58 -33q-6 -32 -6 -61q0 -27 5 -61.5t23.5 -116.5t18.5 -120q0 -14 -1 -28.5t-5 -35
t-17.5 -51.5t-45 -42.5t-79.5 -11.5q-55 0 -89 15t-48.5 56.5t-14.5 78.5q0 52 41 166t41 196q0 42 -27.5 127.5t-29.5 100.5q0 21 15 37t48 22t67 6q66 0 100 -25z" />
    <glyph glyph-name="I" unicode="I" horiz-adv-x="370" 
d="M320 781l11 -29l4 -28q0 -18 -8 -42t-34.5 -79.5t-26.5 -82.5v-12.5t4 -21t44.5 -133t40.5 -187.5q0 -53 -19 -106q-17 -32 -51 -47.5t-79 -15.5q-30 0 -58.5 6t-68.5 26.5t-55 61.5q-3 15 -5 31t-2 34q0 34 11 79t47 137.5t36 154.5v26q-3 13 -5 28t-10 32
q-6 19 -24.5 55t-18.5 60q0 19 10.5 39.5t46 32.5t83.5 12q44 0 81 -9t46 -22z" />
    <glyph glyph-name="J" unicode="J" horiz-adv-x="460" 
d="M432 750l1 -21q0 -34 -34 -112.5t-34 -113.5l2 -36q0 -17 28 -109l35 -120q9 -32 9 -76q0 -51 -21 -90t-76 -69q-44 -21 -103 -21q-22 0 -38 2t-35 9q-33 9 -67.5 46.5t-57 105.5t-22.5 144q0 51 9 104t28 102q11 21 34 21q11 0 21 -5l39 -39q15 -15 31 -15q11 0 20 5
q19 17 25 33t8 26t2 23q0 29 -17.5 95t-17.5 84l-2 17q0 19 8 33.5t23 22.5l42 7l47 4q41 0 69.5 -12.5t43.5 -44.5z" />
    <glyph glyph-name="K" unicode="K" horiz-adv-x="597" 
d="M266 786q22 -22 22 -50q0 -18 -15 -56.5t-15 -57.5l1 -16l6 -14q4 -7 17 -8h7l12 4q15 12 21 30.5t6 41.5l-1 32v12q0 7 -2 21q0 28 10.5 46.5t42.5 27.5l28 10l36 4q48 0 81 -24q20 -17 20 -50q0 -11 -3 -22t-14 -29t-77.5 -63.5t-83.5 -79.5q9 -32 67.5 -99t77 -96
t39.5 -88.5t21 -118.5q0 -61 -16 -94.5t-43 -46t-60 -12.5q-36 0 -64 13.5t-46 46.5q-8 19 -13 48l-4 51q0 11 1 31.5t4 49.5l6 78q0 15 -1 25t-5 40.5t-7 46t-8 24.5q-6 16 -26 19q-23 -9 -35 -32q-10 -23 -10 -50q0 -26 1.5 -38t2.5 -17.5t6 -21.5l23 -84q16 -61 16 -98
q0 -47 -24 -89q-22 -22 -50 -33t-58 -11q-35 0 -74 13q-27 12 -37 34l-22 64q0 69 50 202.5t50 189.5l1 18q0 40 -30.5 124t-30.5 118l1 21q36 42 104 42q56 0 94 -29z" />
    <glyph glyph-name="L" unicode="L" horiz-adv-x="480" 
d="M313 766q-5 -22 -28 -75l-27 -66l-5 -25l-2 -28q0 -24 5.5 -39t12 -24t18.5 -20q23 -3 33 15l20 35q9 15 25 16q13 0 25 -8q48 -48 58 -146l10 -169q0 -113 -30 -165t-82 -70l-76 -4l-77 -4q-59 0 -99.5 17.5t-66.5 69.5l-4 55q0 62 43 201.5t43 196.5q0 33 -38 102.5
t-38 100.5q0 23 14 41t46 33l53 11l52 4q31 0 56 -6.5t50 -21.5q9 -8 9 -15v-12z" />
    <glyph glyph-name="M" unicode="M" horiz-adv-x="714" 
d="M313 744l10 -24l15 -33q18 43 55 75.5t86 47.5l26 4l29 1q35 0 64 -12t45 -41q0 -41 -36.5 -124t-36.5 -119q0 -17 28 -111l83 -272q0 -46 -19 -81.5t-69 -68.5l-36 -7l-42 -3q-44 0 -79.5 15.5t-55.5 51.5q-15 39 -15 84q0 44 42.5 161t42.5 168q0 40 -13 78
q-7 13 -19 13q-6 0 -14 -5q-6 -11 -9 -29l-3 -34l3 -50l3 -50q0 -40 -20 -63q-18 -24 -45 -24q-22 0 -39.5 22.5t-17.5 64.5l3 44l4 48q0 18 -1.5 25t-6.5 22q-6 25 -22 25q-8 0 -16 -11.5t-11 -23.5l-2 -22l3 -38l3 -35l92 -295q0 -37 -15.5 -68.5t-54.5 -60.5l-40 -5
l-41 -2l-46 3q-21 3 -46.5 15t-38.5 44.5t-13 69.5q0 14 1 29.5t4 31.5l24 110l52 216v13q0 7 -1.5 19.5t-3 18.5t-5.5 17q-4 17 -14.5 39.5t-27 58.5t-16.5 66q0 19 4 30q3 14 17 30q37 31 97 31q48 0 89.5 -20t65.5 -60z" />
    <glyph glyph-name="N" unicode="N" horiz-adv-x="647" 
d="M286 779q39 -68 71 -181l45 -165q15 -53 24 -55q5 5 5 9q0 84 -18.5 164t-36.5 129t-18 57q0 22 16.5 42t39.5 24l41 7l39 3q32 0 57 -9.5t45 -33.5l4 -30q0 -27 -34 -104t-34 -110l1 -20q0 -62 42 -198t42 -189l-3 -46q-1 -8 -4 -21.5t-7 -24.5q-16 -20 -42.5 -30.5
t-53.5 -10.5h-13q-7 0 -18.5 1.5t-23 3.5t-34.5 8q-29 18 -46 60q-6 25 -11.5 45t-8.5 28l-38 193q-18 99 -48 177l-6 7q-1 1 -7 2q-24 -15 -24 -56q0 -15 2 -26t25 -87l66 -218q0 -38 -15.5 -70t-53.5 -60l-46 -7l-40 -2q-44 0 -72 14q-27 10 -39.5 34t-24.5 66l-1 18v15
q0 60 33 160t44 147t11 76q0 18 -2 32.5t-9 40.5t-29 63l-21 50q-6 17 -6 38q0 19 7 33q20 22 52.5 34.5t68.5 12.5q33 0 59.5 -9.5t47.5 -30.5z" />
    <glyph glyph-name="O" unicode="O" horiz-adv-x="517" 
d="M371 770q57 -64 87.5 -166t30.5 -313v-97q-9 -69 -39.5 -123t-85.5 -81q-24 -10 -49.5 -15t-56.5 -5q-38 0 -68.5 8t-71.5 45.5t-67.5 120.5t-26.5 180l3 83q0 24 6 61t10 64q41 138 71.5 198t79.5 69l60 9l24 1q28 0 50 -8t43 -31zM256 693q-18 0 -29 -16.5t-15 -32.5
l-5 -35l-1 -29v-45q0 -16 15 -24t35 -8q21 0 35 8.5t14 23.5v41v15v11q-2 7 -2 10q0 14 -7 34q-6 23 -14 35t-26 12z" />
    <glyph glyph-name="P" unicode="P" horiz-adv-x="456" 
d="M425 720q10 -25 10 -48q0 -26 -11 -53.5t-28.5 -47t-83.5 -62t-75 -90.5q0 -64 63 -168.5t63 -160.5q0 -28 -10 -54q-23 -25 -63 -41q-41 -13 -86 -13q-29 0 -57 4.5t-39.5 7t-33 10t-36.5 28.5t-15 48q0 56 15 131l30 153q16 83 16 136q0 60 -14 110.5t-47 93.5l-2 18
q0 23 11.5 39.5t36.5 30.5l90 16q36 6 77 6q63 0 112 -21t77 -73zM217 708q-13 -15 -13 -35q0 -11 0.5 -16t5.5 -25t5 -31l-1 -9h7q18 12 28 33t10 39q0 10 -2 15q0 8 -11 18q-9 11 -29 11z" />
    <glyph glyph-name="Q" unicode="Q" horiz-adv-x="546" 
d="M351 773q62 -85 97.5 -199t35.5 -231q0 -122 -37 -232l-49 -78l3 -12q12 -15 60 -21.5t54 -25.5t6 -28q0 -17 -8.5 -27t-18.5 -18t-24 -16l-22 -3q-44 0 -75 29t-71 86q-25 -7 -48 -7q-39 0 -71 16t-63 48q-48 59 -71.5 141t-23.5 167q0 50 6 97.5t26.5 122.5t53.5 132
t60.5 73t46.5 22t39 6q29 0 51 -11q24 -9 43 -31zM207 654q-7 -28 -7 -57q0 -30 4.5 -49t18.5 -39q11 11 33 16l46 4q5 5 8 19l2 31l-3 48l-7 38q-3 20 -14 32.5t-28 14.5q-35 0 -53 -58z" />
    <glyph glyph-name="R" unicode="R" horiz-adv-x="583" 
d="M420 717l4 -30q0 -32 -11 -51.5t-23 -37.5t-31 -42l103 -119q41 -64 67.5 -138.5t26.5 -148.5q0 -30 -1.5 -42t-6.5 -32q-3 -20 -8 -35t-15 -34q-14 -17 -34 -25.5t-46 -8.5q-7 0 -18 1t-34 4.5t-47 47t-31 70.5t-10.5 43t-3.5 28l-1 32l3 72l4 64q0 29 -2 42.5
t-4.5 23.5t-8 22.5t-21.5 12.5q-8 0 -13 -7.5t-5 -25.5l-3 -33q0 -34 11 -92l14 -73q11 -39 11 -91q0 -15 -0.5 -32t-7.5 -40q-6 -30 -40.5 -49.5t-86.5 -19.5q-35 0 -68 18q-29 18 -44 50q-12 33 -12 78v18t2 22l4 41q31 83 48.5 156t17.5 143q0 64 -15.5 115t-54.5 98
l-1 6v5q0 17 12 29t37 28q38 12 66.5 16.5t48 6.5t40.5 2q62 0 111.5 -20t76.5 -68zM205 692l20 -112l10 -4q6 0 14 8l11 12l16 36l2 21l-3 21q-3 11 -14.5 18.5t-28.5 9.5q-16 0 -27 -10z" />
    <glyph glyph-name="S" unicode="S" horiz-adv-x="472" 
d="M386 727q9 -17 9 -35q0 -17 -4 -28t-18 -30.5t-48 -19.5q-19 0 -34 8q-8 8 -23 58q-12 50 -42 50l-18 -3q-19 -6 -27 -18t-11 -20t-3 -17t6.5 -18.5t112.5 -74t127 -116.5q38 -73 38 -168q0 -67 -13.5 -114t-26.5 -74t-31 -53q-29 -30 -70 -48q-22 -8 -41.5 -12t-43.5 -4
q-41 0 -72 10q-50 19 -81 65t-46 108l-1 53l-1 59q0 73 8 110t22 64l18 4q10 0 37 -10.5t40 -12.5q11 0 19 5t18 21q-6 42 -64.5 97.5t-58.5 104.5v12q0 31 18 56.5t52 47.5q46 20 99 20q51 0 90.5 -18.5t63.5 -58.5z" />
    <glyph glyph-name="T" unicode="T" horiz-adv-x="406" 
d="M298 649l-8 23q-4 9 -15 20q-6 3 -12.5 -2t-9.5 -14q0 -72 27 -159l54 -172q27 -86 27 -158q0 -65 -15.5 -109.5t-63.5 -71.5q-33 -21 -82 -21q-25 0 -35 1.5t-28 6.5q-31 6 -60 22q-30 19 -43 51.5t-13 76.5v36q3 17 4 25l6 49q8 32 64 170t56 219l-1 18v12q0 6 -6 12
t-18 3q-9 -14 -17.5 -70.5t-40.5 -69.5q-37 6 -46 40l-1 37l-1 42q0 24 2 41.5t10 44t39 46.5q6 2 23 4t25 2l83 2l87 -1q34 0 50 -4q30 -18 37.5 -43.5t10.5 -45.5t3 -46l-1 -39l-1 -37q-7 -33 -46 -40q-24 9 -34 41z" />
    <glyph glyph-name="U" unicode="U" horiz-adv-x="548" 
d="M222 781q11 -16 18.5 -38t7.5 -39q0 -28 -8.5 -62t-13.5 -62t-5 -36q0 -21 4 -36q4 -9 18.5 -15.5t30.5 -6.5q23 0 39.5 8.5t21.5 27.5l4 31q0 28 -16.5 95t-16.5 80q0 36 24.5 56.5t85.5 20.5q57 0 80 -20q23 -18 23 -55q0 -26 -15 -68l-31 -85q-11 -38 -11 -83
q0 -56 20 -162t20 -151q0 -73 -35 -119.5t-126 -65.5h-31l-31 -1q-97 0 -138.5 19.5t-67.5 59.5q-18 35 -27 71q-3 19 -5 38t-2 40q0 47 13.5 129t18.5 119t5 57l-1 37q0 11 -6 38l-44 134l1 20l7 18q13 18 37.5 27.5t52.5 9.5q32 0 57 -8t42 -23z" />
    <glyph glyph-name="V" unicode="V" horiz-adv-x="618" 
d="M273 741q3 -11 5 -22.5t2 -27.5q0 -28 -10 -85l-10 -77q0 -23 8 -46t21 -39q12 -12 25 -12q11 0 26 12q12 12 22 34.5t10 53.5q0 30 -15 87t-15 81q0 27 12.5 49.5t47.5 39.5q38 8 72 8q22 0 31.5 -1t26.5 -7q27 -6 48 -24q11 -16 11 -35q0 -16 -7 -36l-13 -37
q-47 -95 -74.5 -158.5t-46.5 -141t-19 -159.5v-30l4 -43q0 -22 -4 -37.5t-19.5 -42.5t-51.5 -43q-21 -13 -46 -13q-39 0 -68 26q-33 27 -45.5 67t-12.5 98l1 45l1 47l-1 43q0 14 -6 34q-4 30 -11.5 58.5t-24 69t-67.5 134.5l-52 98v14q0 34 23 51q44 28 102 28q38 0 70 -14
t50 -47z" />
    <glyph glyph-name="W" unicode="W" horiz-adv-x="655" 
d="M246 778l3 -22q0 -16 -7 -38l-10 -36l-3 -24l-1 -18q0 -34 14 -34q9 0 20 20t11 45q0 48 9 78t27 39.5t29 11.5q11 0 22.5 -8t15.5 -22l2 -62q0 -27 9.5 -57.5t28.5 -30.5q16 0 16 38l-1 12v9l-7 32l-3 28q0 17 6 30t24 25q33 12 66 12q37 0 75 -16q12 -12 18 -24t6 -27
q0 -24 -16 -53.5t-28.5 -57.5t-17 -41.5t-8.5 -40.5l-4 -51q0 -60 41.5 -196.5t41.5 -195.5l-1 -18v-12q-16 -37 -31 -52.5t-41 -25t-57 -9.5q-46 0 -90 25q-36 27 -51 63.5t-15 79.5q0 36 12.5 111t12.5 101q0 54 -14 81q-12 29 -32 29q-12 0 -20.5 -10.5t-11.5 -29.5
l-2 -30l3 -42l3 -43l9 -77l4 -71q0 -66 -15.5 -111.5t-53.5 -60.5q-36 -12 -69 -12q-43 0 -73 20t-45 47q-12 26 -12 57q0 62 37 200t37 187q0 33 -5.5 62t-19.5 60q-3 18 -29 54q-25 39 -25 63q0 13 5 28q20 20 44.5 28.5t41.5 11.5t37 3l31 -2l35 -5q11 -4 16 -12z" />
    <glyph glyph-name="X" unicode="X" horiz-adv-x="600" 
d="M302 703l26 34t33.5 40t55.5 29q37 0 56.5 -3t37.5 -15t18 -26q0 -12 -11 -22l-19 -19l-56 -47q-47 -38 -66 -74q65 -96 105 -171.5t71 -167.5l21 -150q0 -40 -12.5 -68.5t-45.5 -49.5q-44 -13 -76 -13q-25 0 -44.5 5.5t-40.5 20.5q-15 18 -24 39q-3 11 -5 21.5t-2 21.5
q0 14 2 28.5t11.5 58t9.5 67.5v15q0 94 -12 138q-10 42 -37 80q-23 -23 -33.5 -60.5t-10.5 -77.5l3 -62q0 -20 2.5 -36t5.5 -32l12 -60q3 -16 5 -29t2 -25l-3 -34q-3 -15 -13 -30q-20 -23 -50 -34t-69 -15q-44 5 -72.5 19.5t-42.5 48.5q-6 39 -6 76q0 41 6 78.5t27 98
t53.5 117t104.5 166.5q-13 38 -63 80l-106 88q-3 14 5.5 26t35.5 24q5 0 16 1t24 4l39 5q19 0 29 -5q11 -3 24 -18l41 -55q16 -21 38 -31z" />
    <glyph glyph-name="Y" unicode="Y" horiz-adv-x="496" 
d="M195 765l2 -27l-1 -26l-1 -23q0 -38 12.5 -58t30.5 -20q20 0 33 16t16 29t3 30l-1 20v21q0 29 7 45.5t31 25.5l31 5l32 3q27 0 48 -9q20 -7 35 -28l3 -18q0 -29 -65 -115.5t-74 -107t-9 -48.5q0 -41 33.5 -112t38.5 -108l7 -47l3 -49q0 -38 -8 -68t-31 -61
q-24 -24 -58 -36.5t-72 -12.5q-22 0 -41.5 3t-39.5 11q-81 41 -91.5 89.5t-12.5 60.5t-2 26q0 58 52.5 157t52.5 154l-3 34q-9 21 -71 99t-62 127q0 17 6 38q12 12 30 18t42 6q16 0 26 -2l29 -5q18 -6 26 -14q9 -6 13 -23z" />
    <glyph glyph-name="Z" unicode="Z" 
d="M397 760q6 -14 6 -26q0 -23 -24 -50l-44 -47q-10 -15 -52 -52l-50 -49l-15 -25q-3 -8 -5 -25q0 -29 27 -29q7 0 16 6t21.5 31.5t21.5 37t22 11.5q9 0 26 -9l17 -22q0 -56 25.5 -195.5t25.5 -195.5q0 -43 -7 -79q-18 -34 -53 -53q-15 0 -21 2h-14l-65 -3l-74 -4
q-55 0 -92 14t-61 57l-6 47l-2 54q0 37 4 84t13 102l20 146q20 35 96 115l79 83q0 10 -7 18.5t-19 11.5q-34 0 -68 -49t-60 -49q-12 0 -33 9l-17 64l-4 47q0 28 8 47q35 11 69 16.5t56 7.5t47 2q93 0 171 -26z" />
    <glyph glyph-name="a" unicode="a" horiz-adv-x="423" 
d="M363 573q0 -28 -18 -95.5t-18 -92.5q0 -33 21 -76.5t39 -96t18 -105.5q0 -27 -6 -57q-29 -29 -73 -43.5t-95 -14.5q-23 0 -35 1t-43.5 6.5t-63.5 17.5q-36 21 -49 50.5t-17 49.5t-4 46q0 25 1 38t7 38q0 37 14.5 72t53 84.5t113.5 74.5q23 14 23 41q0 10 -6.5 21
t-23.5 11q-6 0 -16 -5t-23.5 -38.5t-27.5 -39.5l-23 -4q-14 0 -25.5 5.5t-16.5 18.5l-3 18l-1 14q0 30 18.5 57t60.5 44.5t90 17.5q32 0 58 -8t44 -20q18 -10 27 -30zM201 387q-17 -8 -25.5 -27t-8.5 -44l1 -18q0 -34 33 -34q9 14 13 38l4 52v33q0 5 -6 5q-8 -3 -11 -5z" />
    <glyph glyph-name="b" unicode="b" horiz-adv-x="423" 
d="M193 776q0 -30 -18 -95.5t-18 -89.5q8 -13 23 -14q12 0 41 16l37 19q6 3 19 3q20 0 34.5 -10.5t35 -63t34.5 -116.5t19 -105t5 -83q0 -53 -8 -98.5t-26 -85.5q-29 -37 -68.5 -51.5t-90.5 -14.5h-15q-6 0 -14 1t-13 1l-50 5q-30 6 -55.5 26.5t-36.5 49.5q0 62 27.5 204.5
t27.5 193.5l-3 55q0 26 -1 37.5t-6.5 34t-28 80t-24.5 71.5q0 35 34 50l43 5l35 2q26 0 42 -5t19 -22zM202 465l2 -36l3 -27q0 -16 -4 -28q0 -8 5.5 -12.5t16.5 -6.5l11 3q15 17 25 36t10 38l-2 17q-9 30 -19 44t-21 14q-10 0 -17.5 -13t-9.5 -29z" />
    <glyph glyph-name="c" unicode="c" horiz-adv-x="419" 
d="M330 565q10 -35 10 -54q0 -32 -19 -55q-23 -13 -46 -13q-14 0 -28 6q-5 7 -10 43q0 36 -22 36l-14 -2q-21 -18 -30.5 -46t-9.5 -60q0 -24 15 -44.5t38 -27.5q11 -5 26 -7q17 0 50.5 20t44.5 20q10 0 19 -4q22 -33 33.5 -77.5t11.5 -90.5q0 -91 -40 -156
q-24 -34 -62.5 -50t-86.5 -16q-23 0 -34 1t-31 6q-68 37 -96.5 105.5t-28.5 160.5v24t2 31l5 66q6 37 14.5 65.5t29.5 69t72 76.5q22 12 41.5 16.5t31.5 6.5t26 2q32 0 54.5 -11.5t33.5 -40.5z" />
    <glyph glyph-name="d" unicode="d" horiz-adv-x="446" 
d="M387 780l8 -5q4 -6 4 -9l-13 -35q-12 -30 -26.5 -100.5t-14.5 -133.5q0 -57 9 -107.5t31 -102.5t33.5 -87.5t11.5 -72.5q0 -44 -24 -86q-31 -28 -76.5 -43t-94.5 -15q-14 0 -29.5 0.5t-47 8t-63.5 21.5q-35 29 -55 85.5t-20 173.5q0 98 16.5 180t58.5 146q13 16 37 16
q15 0 26 -8q23 -20 52 -20l21 3q12 15 12 38t-17 64.5t-17 58.5q0 16 9.5 28.5t34.5 20t48 7.5q48 0 86 -26zM163 464l-6 -25l-2 -24l3 -31l18 -27q9 -9 26 -6q16 0 22.5 4.5t3.5 19.5q-6 9 -6 32l1 26l1 29q0 14 -9 24t-20 11q-20 0 -32 -33z" />
    <glyph glyph-name="e" unicode="e" horiz-adv-x="430" 
d="M337 588q24 -18 27 -48l3 -51q-15 -30 -27.5 -42.5t-29.5 -16.5q-12 -12 -42 -12l-37 3l-35 3q-18 0 -27 -5.5t-9 -22.5q0 -11 5 -26q8 -12 19 -16.5t30 -6.5q17 0 24 2l23 3q13 2 39.5 31t39.5 29q7 0 19 -9q30 -45 40 -105t10 -145q-10 -102 -103 -148q-40 -14 -88 -14
q-31 0 -56 6.5t-47 20.5q-47 48 -65.5 98t-24.5 86t-6 76q0 79 18 146.5t42.5 106t65.5 68.5q38 24 89 24q33 0 57.5 -8t45.5 -27zM189 539q-14 -6 -24.5 -17.5t-8.5 -28.5h104q8 0 11.5 7t1.5 17q-6 13 -18 19t-28 6l-19 -1q-12 0 -19 -2z" />
    <glyph glyph-name="f" unicode="f" horiz-adv-x="404" 
d="M339 771q23 -20 34.5 -46t11.5 -61q0 -17 -13 -29.5t-33 -12.5q-15 0 -29 6t-20 20l-5 30q0 11 -9.5 14t-15.5 3q-10 0 -18.5 -10.5t-8.5 -29.5q0 -9 0.5 -17t5 -20t17.5 -12h22q17 0 28 -3q9 -1 17 -14l-1 -20q0 -30 -2.5 -41t-20.5 -19h-22t-21.5 -3.5t-18.5 -22.5
q0 -72 55 -226t55 -168q0 -20 -3.5 -34.5t-17 -36.5t-49.5 -31l-51 -7l-41 -2q-36 0 -60.5 6.5t-45.5 26.5q-17 23 -28 52q-9 29 -9 55q0 41 37 146l37 107l1 39l2 25q0 28 -6.5 46t-28.5 31l-43 4q-23 0 -23 29q0 25 3 39.5t18 21.5h28q13 0 20.5 3t8.5 16l-2 18l-2 34
q0 23 1 32.5t8.5 30t30.5 36.5q16 14 33.5 19.5t29 7.5t24.5 2q16 0 29.5 -2t39 -9.5t51.5 -22.5z" />
    <glyph glyph-name="g" unicode="g" horiz-adv-x="465" 
d="M410 568q0 -32 -20.5 -87.5t-20.5 -82.5q0 -23 20 -89l55 -185q0 -32 -11 -55q-9 -24 -39 -48q-28 -17 -66.5 -27t-77.5 -10q-33 0 -57.5 4t-40 8t-47.5 18.5t-58 64.5t-26 109l6 64q0 25 7 53t21 45q12 18 35 18q21 0 53 -22q32 -15 59 -15q26 0 51 13q19 17 19 38
l-3 15l-37 4l-32 -3l-31 -6l-23 -3q-22 0 -42 15t-32 30t-16.5 28.5t-4.5 32.5q0 42 20 71q31 32 80 49.5t101 17.5q73 0 133 -28q21 -12 25 -37zM205 533q-13 -3 -23 -12.5t-10 -23.5l13 -9l17 -2l14 1q10 0 16 2l25 -3l25 -3q16 0 13 14q-6 17 -25 29q-20 10 -41 10z" />
    <glyph glyph-name="h" unicode="h" horiz-adv-x="539" 
d="M234 770l1 -15q0 -18 -18 -62.5t-18 -57.5l4 -25q3 -17 32 -17l14 1l25 8l42 11q21 6 41 6q17 0 33.5 -5.5t33.5 -21.5l8 -23l3 -25q0 -10 -3 -27.5t-11 -45.5q-13 -55 -13 -74l1 -22q0 -6 28 -83l77 -212q5 -27 -14.5 -55.5t-51.5 -34.5l-28 -1l-31 -1q-32 0 -53.5 8
t-33.5 34l-13 61l-4 66q0 20 3 61t3 58l6 94v23v21q-2 8 -2 11q0 12 -1.5 17.5t-7.5 26.5t-14 22q-9 0 -16.5 -18t-12.5 -49l2 -64l5 -73q0 -10 1 -29.5t4 -47.5l5 -75q0 -40 -6.5 -67t-27.5 -54q-16 -14 -34 -20t-29 -8t-26 -2q-16 0 -25 1t-30 6.5t-39.5 27t-18.5 48.5
q0 61 25 133l51 147q26 75 26 131q0 30 -5 53q-3 26 -9.5 41t-13.5 29.5t-29 56.5t-22 71q0 28 18 57q12 12 34.5 19t45.5 7q35 0 58 -11q24 -9 31 -31z" />
    <glyph glyph-name="i" unicode="i" horiz-adv-x="326" 
d="M259 573l3 -24q0 -24 -22 -77t-22 -81l-1 -21q0 -48 46.5 -142.5t46.5 -134.5q0 -29 -17.5 -57t-61.5 -52q-34 -14 -76 -14q-57 0 -95 25q-24 26 -36 51q-4 11 -7 26t-3 29q0 46 43 139.5t43 142.5l-1 21l2 15q0 23 -24 69t-24 65q0 14 8.5 26.5t33.5 26.5l36 4l37 3
q30 0 53 -9t38 -31zM161 814q34 0 64.5 -21.5t30.5 -53.5q0 -41 -20.5 -73t-53.5 -32q-43 0 -74.5 23t-31.5 62q0 36 23.5 65.5t61.5 29.5z" />
    <glyph glyph-name="j" unicode="j" horiz-adv-x="414" 
d="M360 586q6 -11 6 -23q0 -10 -1.5 -15.5t-6.5 -18.5l-17 -45l-13 -49l-4 -42q0 -24 20 -94l52 -189q0 -31 -11 -56q-8 -24 -36 -50q-24 -18 -57 -27t-70 -9q-33 0 -56 3l-32 7q-65 32 -90 96.5t-25 151.5l1 50l7 71q6 48 14.5 71t37.5 41l14 3q17 0 41 -30q21 -30 40 -30
q11 0 31 9t20 37l-3 23l-9 24l-14 31q-6 15 -6 29t7 27q32 35 90 35q48 0 70 -31zM289 806q34 0 57 -23q25 -22 25 -55q0 -34 -22 -57.5t-56 -23.5q-33 0 -57.5 22.5t-24.5 54.5q0 34 22.5 58t55.5 24z" />
    <glyph glyph-name="k" unicode="k" horiz-adv-x="513" 
d="M240 771l1 -19q0 -12 -3 -29t-11 -43q-13 -52 -13 -69l-3 -50q0 -44 12 -88q19 13 55 87.5t84 74.5h12.5t17.5 -4q25 0 42 -5.5t28 -23.5q0 -39 -54 -74t-66 -51l-20 -23q-6 -8 -7 -23l3 -14q75 -63 110.5 -122.5t48.5 -101t13 -84.5q0 -39 -12 -78q-13 -19 -34.5 -29
t-51.5 -15q-38 0 -63.5 9.5t-39.5 36.5q-8 24 -13 57l-3 64v33l1 34q0 46 -6 77.5t-28 68.5l-9 4q-6 0 -10.5 -5.5t-6.5 -14.5q0 -47 16 -134.5t16 -125.5q0 -30 -6 -63q-7 -20 -34 -32t-60 -12q-45 0 -81 16q-21 14 -31 38.5t-10 58.5v30q3 14 4.5 26l2.5 20t5 21l37 132
q32 113 32 188q0 43 -7 79l-43 151q0 19 7 33.5t25 29.5l39 5l30 2q30 0 51 -9t33 -34z" />
    <glyph glyph-name="l" unicode="l" horiz-adv-x="334" 
d="M276 754q6 -18 6 -40q0 -21 -6 -30q-32 -38 -49 -84q-14 -44 -14 -94q0 -62 14 -112t53 -151.5t39 -123.5q0 -52 -26 -88q-24 -20 -63.5 -32t-77.5 -12q-72 0 -105 30q-16 19 -25 46q-3 13 -5 27t-2 30v34q3 13 5 26t20 69l44 140q26 87 26 153q0 48 -11.5 87t-40.5 79
q-6 14 -6 27q0 22 11.5 38t31.5 23l39 8l39 3q35 0 61.5 -12t41.5 -41z" />
    <glyph glyph-name="m" unicode="m" horiz-adv-x="700" 
d="M316 612l37 -62q18 31 42 48.5t41.5 23.5t37.5 6q54 0 84 -3.5t37 -16.5l10 -26l3 -25q0 -25 -17.5 -79t-17.5 -74q0 -26 6 -43l47 -116q42 -99 42 -137q0 -23 -4.5 -40t-10 -27.5t-14.5 -23.5q-10 -10 -33 -20q-11 -3 -20 -5t-21 -2l-22 2q-12 0 -25 5q-34 18 -51 57
q-15 39 -15 88l20 244q0 66 -8 91.5t-20 25.5q-9 0 -18 -20l-12 -50l-4 -62q0 -43 10 -126l10 -116v-36q-3 -16 -4.5 -29t-3.5 -22t-9 -24.5t-20 -21t-30 -7.5q-18 0 -30 8q-30 27 -42.5 60.5t-12.5 78.5q0 33 10 103l10 100q0 53 -6 94t-17 54q-9 15 -23 16q-29 0 -29 -62
l1 -39q0 -24 2 -38q0 -39 18 -123t18 -126l-3 -45q-3 -19 -13 -40q-14 -17 -32 -24.5t-30 -9.5t-29 -2l-36 3l-38 8q-21 11 -36 37q-8 17 -10.5 29.5t-2.5 24.5q0 7 40 131.5t40 172.5l-3 39l-45 85q-17 37 -17 70l1 18q15 17 45 17q18 0 29 -10l33 -44q4 2 29 30
q21 27 42 27h26q23 0 37.5 -3.5t26.5 -16.5z" />
    <glyph glyph-name="n" unicode="n" horiz-adv-x="517" 
d="M416 584l2 -24q0 -22 -15.5 -73t-15.5 -74q0 -13 1 -21t7 -29t52 -131.5t46 -175.5q0 -16 -15 -30t-38 -23l-37 -6l-33 -3q-35 0 -60 15t-37 42q-10 30 -10 65l2 51l3 39l16 124q3 25 5 48.5t2 41.5q0 41 -6 70.5t-29 29.5q-24 0 -31 -29l-3 -70q0 -25 1 -51.5t4 -55.5
l10 -96l5 -64l2 -30q0 -51 -9.5 -83.5t-25.5 -38.5l-43 -11q-27 -6 -51 -6q-28 0 -49 9.5t-29.5 28t-13.5 46.5q0 55 46 170.5t46 154.5l-3 37l-9 34q-5 13 -29 49t-24 55q0 10 3.5 18.5t13 19t33.5 10.5q19 0 34 -7l15 -23q7 -12 19 -6q18 28 48 40t73 12h17t22 -2l39 -4
q16 0 24 -8t14 -17.5t11 -17.5z" />
    <glyph glyph-name="o" unicode="o" horiz-adv-x="409" 
d="M295 606q47 -60 71 -144.5t24 -174.5q0 -88 -20 -165q-17 -49 -52.5 -85t-83.5 -42q-81 0 -120 30t-63 82q-15 40 -21.5 74.5t-8.5 56t-2 47.5q0 43 5 80t23 98.5t59 126.5q15 20 39 34.5t50 14.5q34 0 56.5 -6.5t43.5 -26.5zM184 527l-10 -45l-3 -39q0 -19 3.5 -31
t16.5 -16l26 -4q14 0 22 3t11 13v45q-3 16 -5 32.5t-17 43.5q-5 12 -18 12q-15 0 -26 -14z" />
    <glyph glyph-name="p" unicode="p" 
d="M401 548l10 -28l4 -29q0 -15 -6 -30q-3 -16 -19 -32t-35 -25q-8 -5 -72.5 -12t-79.5 -50q0 -44 45 -144.5t45 -148.5q0 -17 -15 -29.5t-35 -20.5l-62 -6l-44 -2q-38 0 -63 6t-36 23t-16 38t-5.5 29.5t-0.5 13.5q0 26 6 52.5t20 56.5l42 89q15 32 15 62q0 34 -33.5 108.5
t-33.5 107.5q23 33 65 48t93 15q46 0 92 -10q41 -11 72.5 -30.5t46.5 -51.5zM199 548q-11 -6 -11 -24l3 -31l8 -32q6 -3 9 -3q10 0 19 8l22 23q12 15 12 33l-3 12q-3 5 -15 10l-27 4h-17z" />
    <glyph glyph-name="q" unicode="q" horiz-adv-x="482" 
d="M419 589l-64 -216q0 -25 7.5 -46t25.5 -44q32 -23 52 -50t20 -59q0 -13 -6 -31q-15 -57 -57.5 -99.5t-100.5 -48.5l-33 -3q-60 0 -99 36q-10 13 -20 37q-6 21 -6 44q0 21 1 31t6 27t10 31.5t13 31.5q4 14 35 74.5t35 99.5q-10 6 -31 11l-37 3l-21 -1h-20q-26 0 -45 6
t-35 25q-14 11 -20.5 29t-6.5 39l1 18q-3 23 14.5 45t40.5 38q69 27 152 27q56 0 104.5 -13t84.5 -42zM201 573q-25 -13 -20 -39q6 -15 21 -26.5t52 -17.5q11 6 15 24l7 39q-8 11 -22 16.5t-30 5.5h-12z" />
    <glyph glyph-name="r" unicode="r" horiz-adv-x="392" 
d="M178 591v-16q4 -6 8 -8l51 39q32 21 61 21h11q24 -5 32.5 -15t18.5 -34l15 -97q0 -17 -5 -33.5t-21.5 -32t-44.5 -15.5q-14 0 -27 5q-17 9 -17 31l3 23l5 20q0 10 -13 11q-14 0 -23.5 -15.5t-16 -41t-6.5 -49.5q0 -49 31 -124l69 -165l1 -16q0 -48 -37 -65.5t-59 -21.5
l-48 -4q-39 0 -71.5 9.5t-53.5 28.5q-23 34 -23 74q0 37 36.5 127t41 108.5t4.5 39.5q0 36 -19 83l-22 48l-15 37q-6 19 -8 38q0 16 8.5 27.5t30.5 17.5t37 6q22 0 40 -10t26 -31z" />
    <glyph glyph-name="s" unicode="s" horiz-adv-x="377" 
d="M276 611q39 -24 39 -81q0 -20 -6 -41q0 -10 -8 -15l-17 -9l-18 -3q-38 0 -47 34l1 6v5q0 26 -21 38q-6 2 -9 2q-8 0 -19 -6.5t-11 -18.5q5 -33 42 -60l67 -41q49 -33 64.5 -78t20.5 -78t5 -74q-4 -31 -12.5 -59.5t-28 -66t-69.5 -61.5q-38 -10 -68 -10t-53.5 6.5
t-44.5 25.5q-32 35 -50 88q-8 28 -12 53.5t-4 59.5q0 79 15 122t31 43q9 0 15 -10l12 -20q6 -10 21 -15q25 0 35 20q0 34 -46 66.5t-49 52.5l-2 31q0 26 12 51t44.5 45.5t85.5 20.5q23 0 46 -5.5t39 -17.5z" />
    <glyph glyph-name="t" unicode="t" horiz-adv-x="335" 
d="M246 716q3 -5 5 -18q0 -15 -15.5 -42.5t-15.5 -38.5q0 -8 6 -16q4 -3 25 -8l21 1q18 0 29 -10l5 -24l2 -16q0 -12 -7 -22q-7 -5 -46 -11q-35 0 -40 -24l-3 -26v-11q0 -62 53.5 -167t53.5 -159q0 -16 -2 -26t-4 -22.5t-12 -32.5q-18 -30 -52 -43.5t-72 -13.5q-45 0 -96 16
q-28 18 -42.5 49.5t-14.5 67.5q0 27 5 46l37 113q15 45 23 83t8 70q0 35 -7 63q-7 9 -40.5 18.5t-33.5 31.5l2 18l5 22q3 12 17 13l9 -1q16 0 24.5 8.5t9.5 21.5q0 10 -1.5 16t-8.5 25t-7 28q0 16 11 27q33 19 77 19q51 0 92 -25z" />
    <glyph glyph-name="u" unicode="u" 
d="M196 583l6 -21l2 -23q0 -27 -14 -78t-14 -66l1 -21q0 -7 4.5 -19t15.5 -18l25 -4q16 0 31 6q13 8 18.5 20t5.5 29l-3 30l-5 33l-31 104q0 24 18 45q34 31 88 31q22 0 39.5 -10.5t30.5 -30.5l1 -12v-12q0 -30 -21 -108.5t-21 -110.5l1 -31l9 -36l19 -61q12 -45 12 -78
q0 -29 -8 -53.5t-32.5 -46t-65.5 -35.5q-39 -11 -83 -11q-55 0 -98.5 12t-60.5 31t-22 27.5t-9 20.5l-5 26v11q0 31 15.5 94t21.5 96t6 50q0 25 -5 44q-3 23 -14 42l-19 48q-15 38 -15 59q0 18 5 31q13 24 39 34t56 10q25 -3 46 -15q21 -9 30 -33z" />
    <glyph glyph-name="v" unicode="v" horiz-adv-x="502" 
d="M208 598q20 -17 27.5 -39.5t7.5 -50.5l-3 -50l-2 -37q0 -61 24 -61q23 0 23 60q0 14 -2 29t-3 24l-5 51q0 29 11.5 50.5t46.5 39.5q21 6 46 6h22q11 -3 22.5 -5t33.5 -18.5t22 -55.5l-3 -24l-60 -123q-10 -21 -21 -49.5t-24 -65t-28 -103.5l-13 -96q-15 -70 -38 -80
q-18 -6 -35 -8q-16 0 -28.5 7.5t-23.5 20.5q-30 48 -42 161t-23.5 164.5t-67.5 96.5q-30 37 -39.5 58.5t-9.5 43.5q0 13 6 30.5t25.5 30t41.5 17.5l27 3q22 0 39.5 -5.5t24.5 -9t21 -12.5z" />
    <glyph glyph-name="w" unicode="w" horiz-adv-x="521" 
d="M241 57q-6 -21 -14.5 -34.5t-30.5 -23.5t-56 -10q-44 0 -76 21q-19 19 -32 43q-9 23 -9 49q0 36 23 91l51 124q6 26 6 50q0 61 -23 106t-52 82l-3 15q0 33 36 44l36 5l30 2q27 0 45 -6.5t30 -24.5l3 -18q0 -13 -12.5 -42t-10.5 -39q3 -21 13 -21q6 0 13 10l12 22l18 87
q9 24 34 24l20 -3q7 -3 12.5 -15t5.5 -35v-24v-19q0 -8 8.5 -25t21.5 -17q9 0 9 18q0 12 -2 18q0 9 -5.5 23.5t-8 27.5t-3.5 17q0 12 7 21t26 18l31 3l23 2q20 0 32.5 -3.5t20.5 -14.5q10 -20 10 -39q0 -14 -6 -32.5t-25 -55.5t-25 -55l-3 -36q0 -28 9 -65.5t38.5 -112
t29.5 -127.5l-1 -16l-4 -27q0 -17 -38 -32q-39 -13 -84 -13q-34 0 -57.5 13.5t-38.5 45.5l-6 36l-2 38q0 34 9 117.5t9 138.5q0 16 -3.5 29.5t-15.5 13.5q-8 0 -16.5 -11.5t-8.5 -33.5v-18l4 -94l4 -117q0 -66 -8 -95z" />
    <glyph glyph-name="x" unicode="x" horiz-adv-x="499" 
d="M251 544q12 3 32 20l46 39q24 18 60 18q22 0 40.5 -8t27.5 -25v-10q0 -6 -6 -12l-57 -40q-48 -33 -77 -65q85 -127 122.5 -196t37.5 -153q0 -44 -11 -80q-19 -21 -50.5 -30.5t-65.5 -9.5t-51 10q-21 17 -29.5 42.5t-8.5 56.5q0 24 3 47.5t8.5 61t5.5 59.5q0 35 -6.5 57.5
t-25.5 46.5q-14 -20 -21 -45t-7 -56q0 -29 7 -78l7 -77q0 -38 -11 -65.5t-41 -52.5q-16 -3 -32 -5t-30 -2q-35 0 -58 10q-18 14 -29 40q-4 13 -6 25t-2 31q0 22 1 31q5 21 8.5 51.5t46.5 109t113 158.5q-12 31 -65 66.5t-67 49.5l-3 14q0 15 16 24l28 15l30 3q38 0 68 -20
t52 -56z" />
    <glyph glyph-name="y" unicode="y" horiz-adv-x="392" 
d="M166 584l6 -34l2 -38q0 -55 16 -55q6 0 15 15.5t16 51.5t10 49t10.5 25.5t33.5 22.5l30 3q25 0 42 -8.5t17 -26.5q0 -25 -29 -54l-53 -62q-12 -16 -20 -47l-6 -25l-2 -26q0 -43 35.5 -129.5t35.5 -116.5q0 -24 -8.5 -48t-28.5 -46q-44 -42 -113 -42q-38 0 -66 12
t-42.5 35.5t-21.5 47.5l-5 38q0 49 47 136.5t47 128.5q0 26 -11 49q-8 22 -25.5 40t-48.5 42t-31 49q1 16 14 31t30 18l34 4q24 0 42 -9t28 -31z" />
    <glyph glyph-name="z" unicode="z" horiz-adv-x="377" 
d="M359 575l4 -19q0 -10 -7.5 -20t-76.5 -76t-86 -100q-5 -19 12 -19q7 0 17 4.5t29 26.5l19 15q5 3 16 5q9 0 15 -10q10 -23 16.5 -54t6.5 -73t3 -64t8 -41t7 -28t2 -21q0 -36 -27 -69q-28 -20 -54.5 -27t-47.5 -10t-40 -3q-59 0 -97.5 14.5t-52.5 38.5q-13 26 -13 57
q0 25 5.5 54.5t8 40t7.5 27.5l18 89q9 47 31 76l59 50q51 42 57 83q-8 5 -21 7q-12 0 -17.5 -5.5t-20 -32.5t-33.5 -30q-33 3 -51 34q-16 32 -16 65q0 11 6 33.5t57 27.5l83 5q77 0 113 -6.5t61 -44.5z" />
    <glyph glyph-name="cent" unicode="&#xa2;" horiz-adv-x="419" 
d="M253 703q30 -6 50 -15.5t27 -31.5l10 -34l3 -31q0 -19 -4.5 -32t-19.5 -25l-48 -13q-10 0 -19.5 9t-9.5 39q0 31 -15 42q-22 3 -32.5 -10.5t-24.5 -42.5l-4 -27q0 -10 1 -16t6 -24l10 -36q9 -13 21 -18l40 -11q16 0 51.5 21t52.5 19q26 -35 39 -84t13 -97q0 -84 -32 -147
q-10 -39 -74.5 -59.5t-64.5 -65.5l-17 1q-19 0 -28 3.5t-6 21.5q0 24 -32.5 36t-41.5 24q-41 46 -63 112t-22 141q0 60 8 97.5t16 64.5t19 51q11 41 46 78.5t75 50.5q7 4 7 25q0 20 21 17l10 1q32 0 32 -34z" />
    <glyph glyph-name="nonbreakingspace" unicode="&#xa0;" horiz-adv-x="250" 
 />
    <glyph glyph-name="quoteleft" unicode="&#x2018;" horiz-adv-x="277" 
d="M236 904q-4 -12 -14.5 -28t-27 -42.5t-16.5 -54.5l3 -21q3 -12 28.5 -61t25.5 -79q0 -22 -15.5 -60t-38 -63t-47.5 -34q-36 0 -63 12t-40 40q-19 54 -19 105q0 72 33 142.5t92 130.5l38 20q8 4 15 6t17 2q17 0 29 -15z" />
    <glyph glyph-name="quoteright" unicode="&#x2019;" horiz-adv-x="256" 
d="M212 866q6 -16 11 -44l3 -50q0 -60 -20.5 -122.5t-55.5 -117.5q-31 -34 -46 -43.5t-27 -14.5t-25 -5l-12 1q-6 10 -7 23q0 16 20 46.5t24 46.5l2 19q0 25 -33.5 78t-33.5 78q0 14 6 32q8 47 35 82t69 50q30 3 54.5 -14.5t35.5 -44.5z" />
  </font>
</defs>
</svg>
